<svg width="28" height="28" viewBox="0 0 28 28" fill="none" xmlns="http://www.w3.org/2000/svg">
<rect x="2" y="3" width="24" height="21" fill="black"/>
<path d="M22.1667 0H5.83333C2.61217 0 0 2.61217 0 5.83333V22.1667C0 25.3878 2.61217 28 5.83333 28H22.1667C25.389 28 28 25.3878 28 22.1667V5.83333C28 2.61217 25.389 0 22.1667 0ZM16.9563 22.855C16.4838 22.946 16.3333 22.6555 16.3333 22.407V19.8462C16.3333 18.9747 16.0277 18.4077 15.6917 18.1183C17.7707 17.8873 19.9547 17.0975 19.9547 13.5135C19.9547 12.4938 19.5907 11.6608 18.9945 11.0087C19.0902 10.773 19.4098 9.82333 18.9023 8.53883C18.9023 8.53883 18.1195 8.288 16.338 9.4955C15.5913 9.2855 14.7933 9.184 14 9.17933C13.2067 9.18283 12.4087 9.2855 11.6632 9.49317C9.8805 8.28567 9.0965 8.5365 9.0965 8.5365C8.59017 9.82217 8.90983 10.7707 9.00667 11.0075C8.40933 11.6608 8.04533 12.4927 8.04533 13.5123C8.04533 17.087 10.2235 17.8885 12.2978 18.1253C12.0307 18.3587 11.7892 18.7693 11.7052 19.3737C11.172 19.6117 9.82217 20.0235 8.98917 18.5967C8.98917 18.5967 8.49567 17.7007 7.55767 17.6342C7.55767 17.6342 6.64767 17.6225 7.4935 18.2023C7.4935 18.2023 8.106 18.4893 8.53067 19.5673C8.53067 19.5673 9.07083 21.2333 11.6667 20.6687V22.4058C11.6667 22.652 11.5162 22.9413 11.0507 22.855C7.34067 21.6218 4.66667 18.123 4.66667 14C4.66667 8.8445 8.84567 4.66667 14 4.66667C19.1543 4.66667 23.3333 8.8445 23.3333 14C23.3333 18.1218 20.6628 21.6195 16.9563 22.855Z" fill="url(#paint0_linear)"/>
<defs>
<linearGradient id="paint0_linear" x1="0" y1="0" x2="28" y2="28" gradientUnits="userSpaceOnUse">
<stop stop-color="#FFDD00"/>
<stop offset="1" stop-color="#FCCD53"/>
</linearGradient>
</defs>
</svg>
