<svg width="28" height="28" viewBox="0 0 28 28" fill="none" xmlns="http://www.w3.org/2000/svg">
<rect x="3.5" y="3.5" width="21" height="21" fill="black"/>
<path d="M22.1667 0H5.83333C2.61217 0 0 2.61217 0 5.83333V22.1667C0 25.3878 2.61217 28 5.83333 28H22.1667C25.389 28 28 25.3878 28 22.1667V5.83333C28 2.61217 25.389 0 22.1667 0ZM9.33333 22.1667H5.83333V9.33333H9.33333V22.1667ZM7.58333 7.854C6.45633 7.854 5.54167 6.93233 5.54167 5.796C5.54167 4.65967 6.45633 3.738 7.58333 3.738C8.71033 3.738 9.625 4.65967 9.625 5.796C9.625 6.93233 8.7115 7.854 7.58333 7.854ZM23.3333 22.1667H19.8333V15.6287C19.8333 11.6993 15.1667 11.9968 15.1667 15.6287V22.1667H11.6667V9.33333H15.1667V11.3925C16.7953 8.3755 23.3333 8.15267 23.3333 14.2812V22.1667Z" fill="url(#paint0_linear)"/>
<defs>
<linearGradient id="paint0_linear" x1="0" y1="0" x2="28" y2="28" gradientUnits="userSpaceOnUse">
<stop stop-color="#FFDD00"/>
<stop offset="1" stop-color="#FCCD53"/>
</linearGradient>
</defs>
</svg>
