<svg width="153" height="40" viewBox="0 0 153 40" fill="none" xmlns="http://www.w3.org/2000/svg">
<path d="M53.9181 27V22.344H53.8941L49.3101 13.488H53.0781L55.6461 19.512L58.2141 13.488H61.9821L57.2541 22.344V27H53.9181Z" fill="black"/>
<path d="M65.5789 27.24C64.3789 27.24 63.4109 27 62.6749 26.52C61.9389 26.04 61.3949 25.424 61.0429 24.672C60.7069 23.904 60.5229 23.104 60.4909 22.272C60.4589 21.184 60.6509 20.248 61.0669 19.464C61.4829 18.664 62.0669 18.056 62.8189 17.64C63.5869 17.208 64.4669 16.992 65.4589 16.992C66.4029 16.992 67.2429 17.192 67.9789 17.592C68.7309 17.976 69.3149 18.528 69.7309 19.248C70.1629 19.968 70.3789 20.832 70.3789 21.84V22.464H63.6589C63.6589 23.168 63.8269 23.68 64.1629 24C64.5149 24.32 64.9629 24.48 65.5069 24.48C65.9709 24.48 66.3389 24.376 66.6109 24.168C66.8989 23.944 67.0669 23.664 67.1149 23.328H70.3549C70.3069 24.032 70.0989 24.688 69.7309 25.296C69.3629 25.888 68.8349 26.36 68.1469 26.712C67.4589 27.064 66.6029 27.24 65.5789 27.24ZM63.7069 21.12H67.0189C67.0189 21.12 67.0109 21.048 66.9949 20.904C66.9949 20.76 66.9469 20.592 66.8509 20.4C66.7549 20.208 66.5949 20.04 66.3709 19.896C66.1469 19.752 65.8189 19.68 65.3869 19.68C64.9549 19.68 64.6189 19.752 64.3789 19.896C64.1389 20.04 63.9709 20.208 63.8749 20.4C63.7949 20.592 63.7469 20.76 63.7309 20.904C63.7149 21.048 63.7069 21.12 63.7069 21.12Z" fill="black"/>
<path d="M71.9061 27V13.488H75.1701V27H71.9061Z" fill="black"/>
<path d="M76.8401 27V13.488H80.1041V27H76.8401Z" fill="black"/>
<path d="M86.4302 27.24C85.2622 27.24 84.2862 27.024 83.5022 26.592C82.7182 26.144 82.1342 25.536 81.7502 24.768C81.3662 24 81.1742 23.128 81.1742 22.152C81.1582 21.16 81.3422 20.288 81.7262 19.536C82.1102 18.768 82.6942 18.16 83.4782 17.712C84.2782 17.264 85.2622 17.04 86.4302 17.04C88.1422 17.04 89.4382 17.512 90.3182 18.456C91.2142 19.384 91.6622 20.616 91.6622 22.152C91.6622 23.112 91.4702 23.976 91.0862 24.744C90.7182 25.512 90.1502 26.12 89.3822 26.568C88.6142 27.016 87.6302 27.24 86.4302 27.24ZM86.4302 24.456C87.0222 24.456 87.4622 24.336 87.7502 24.096C88.0382 23.856 88.2222 23.552 88.3022 23.184C88.3982 22.8 88.4462 22.416 88.4462 22.032C88.4462 21.632 88.3982 21.248 88.3022 20.88C88.2222 20.512 88.0382 20.208 87.7502 19.968C87.4622 19.712 87.0222 19.584 86.4302 19.584C85.8382 19.584 85.3902 19.712 85.0862 19.968C84.7982 20.208 84.6062 20.512 84.5102 20.88C84.4302 21.248 84.3902 21.632 84.3902 22.032C84.3902 22.416 84.4302 22.8 84.5102 23.184C84.6062 23.552 84.7982 23.856 85.0862 24.096C85.3902 24.336 85.8382 24.456 86.4302 24.456Z" fill="black"/>
<path d="M94.0935 27L92.1255 17.52V17.016H95.4375L96.4935 24.216H96.5415L98.2455 17.016H101.101L102.901 24.216H102.949L104.029 17.016H107.317V17.52L105.253 27H100.621L99.7095 22.8H99.6615L98.8215 27H94.0935Z" fill="black"/>
<path d="M112.836 27.24C111.636 27.24 110.668 27.032 109.932 26.616C109.196 26.184 108.66 25.6 108.324 24.864C108.004 24.128 107.844 23.28 107.844 22.32H111.012C111.012 22.864 111.124 23.344 111.348 23.76C111.588 24.16 112.044 24.36 112.716 24.36C113.292 24.36 113.716 24.184 113.988 23.832C114.26 23.464 114.396 22.744 114.396 21.672V16.032H111.564V13.488H117.756V21.096C117.756 22.024 117.692 22.872 117.564 23.64C117.452 24.392 117.228 25.04 116.892 25.584C116.556 26.112 116.06 26.52 115.404 26.808C114.764 27.096 113.908 27.24 112.836 27.24Z" fill="black"/>
<path d="M124.448 27.24C123.28 27.24 122.304 27.024 121.52 26.592C120.736 26.144 120.152 25.536 119.768 24.768C119.384 24 119.192 23.128 119.192 22.152C119.176 21.16 119.36 20.288 119.744 19.536C120.128 18.768 120.712 18.16 121.496 17.712C122.296 17.264 123.28 17.04 124.448 17.04C126.16 17.04 127.456 17.512 128.336 18.456C129.232 19.384 129.68 20.616 129.68 22.152C129.68 23.112 129.488 23.976 129.104 24.744C128.736 25.512 128.168 26.12 127.4 26.568C126.632 27.016 125.648 27.24 124.448 27.24ZM124.448 24.456C125.04 24.456 125.48 24.336 125.768 24.096C126.056 23.856 126.24 23.552 126.32 23.184C126.416 22.8 126.464 22.416 126.464 22.032C126.464 21.632 126.416 21.248 126.32 20.88C126.24 20.512 126.056 20.208 125.768 19.968C125.48 19.712 125.04 19.584 124.448 19.584C123.856 19.584 123.408 19.712 123.104 19.968C122.816 20.208 122.624 20.512 122.528 20.88C122.448 21.248 122.408 21.632 122.408 22.032C122.408 22.416 122.448 22.8 122.528 23.184C122.624 23.552 122.816 23.856 123.104 24.096C123.408 24.336 123.856 24.456 124.448 24.456Z" fill="black"/>
<path d="M137.439 27.24C136.863 27.24 136.375 27.16 135.975 27C135.591 26.84 135.279 26.656 135.039 26.448C134.799 26.24 134.623 26.056 134.511 25.896C134.415 25.736 134.367 25.656 134.367 25.656H134.319L133.791 27H130.863V13.488H134.319V18.888H134.367C134.367 18.888 134.415 18.8 134.511 18.624C134.607 18.432 134.767 18.216 134.991 17.976C135.215 17.736 135.527 17.528 135.927 17.352C136.327 17.16 136.831 17.064 137.439 17.064C138.911 17.064 139.927 17.52 140.487 18.432C141.047 19.328 141.327 20.6 141.327 22.248C141.327 23.272 141.207 24.16 140.967 24.912C140.743 25.664 140.351 26.24 139.791 26.64C139.231 27.04 138.447 27.24 137.439 27.24ZM136.191 24.48C136.767 24.48 137.183 24.376 137.439 24.168C137.711 23.944 137.879 23.664 137.943 23.328C138.023 22.976 138.063 22.608 138.063 22.224C138.063 21.84 138.023 21.48 137.943 21.144C137.879 20.792 137.711 20.512 137.439 20.304C137.183 20.096 136.767 19.992 136.191 19.992C135.631 19.992 135.215 20.096 134.943 20.304C134.671 20.512 134.495 20.792 134.415 21.144C134.351 21.48 134.319 21.84 134.319 22.224C134.319 22.608 134.351 22.976 134.415 23.328C134.495 23.664 134.671 23.944 134.943 24.168C135.215 24.376 135.631 24.48 136.191 24.48Z" fill="black"/>
<path d="M147.056 27.24C146.944 27.24 146.704 27.224 146.336 27.192C145.984 27.176 145.576 27.112 145.112 27C144.664 26.872 144.224 26.672 143.792 26.4C143.36 26.128 143 25.76 142.712 25.296C142.44 24.816 142.304 24.2 142.304 23.448H145.376C145.376 23.464 145.376 23.544 145.376 23.688C145.392 23.832 145.44 23.992 145.52 24.168C145.616 24.344 145.768 24.504 145.976 24.648C146.2 24.776 146.528 24.84 146.96 24.84C147.504 24.84 147.84 24.744 147.968 24.552C148.096 24.36 148.16 24.216 148.16 24.12C148.16 23.88 148.024 23.688 147.752 23.544C147.48 23.4 147.128 23.272 146.696 23.16C146.264 23.032 145.8 22.896 145.304 22.752C144.824 22.592 144.368 22.392 143.936 22.152C143.504 21.896 143.152 21.568 142.88 21.168C142.608 20.768 142.472 20.256 142.472 19.632C142.472 18.608 142.848 17.864 143.6 17.4C144.368 16.936 145.328 16.704 146.48 16.704C147.92 16.704 149.088 17.04 149.984 17.712C150.896 18.368 151.368 19.336 151.4 20.616H148.376C148.376 20.056 148.192 19.68 147.824 19.488C147.472 19.296 147.08 19.2 146.648 19.2C146.184 19.2 145.88 19.28 145.736 19.44C145.592 19.584 145.52 19.736 145.52 19.896C145.52 20.184 145.656 20.416 145.928 20.592C146.216 20.752 146.576 20.896 147.008 21.024C147.456 21.152 147.928 21.288 148.424 21.432C148.936 21.576 149.408 21.768 149.84 22.008C150.288 22.232 150.648 22.536 150.92 22.92C151.208 23.288 151.352 23.768 151.352 24.36C151.352 25.288 150.968 26 150.2 26.496C149.448 26.992 148.4 27.24 147.056 27.24Z" fill="black"/>
<rect width="40" height="40" rx="7.38461" fill="url(#paint0_linear)"/>
<path d="M10.6511 23.0704C10.2439 21.5108 11.4208 19.9872 13.0328 19.9872H27.0398C28.6291 19.9872 29.8018 21.4708 29.4349 23.0171L28.1266 28.5299C27.8633 29.6396 26.8721 30.4231 25.7316 30.4231H14.4719C13.3518 30.4231 12.373 29.667 12.0901 28.5833L10.6511 23.0704Z" fill="url(#paint1_linear)"/>
<ellipse cx="20" cy="13.782" rx="4.51282" ry="4.51282" fill="url(#paint2_linear)"/>
<defs>
<linearGradient id="paint0_linear" x1="0" y1="0" x2="40" y2="40" gradientUnits="userSpaceOnUse">
<stop stop-color="#FFDD00"/>
<stop offset="1" stop-color="#FCCD53"/>
</linearGradient>
<linearGradient id="paint1_linear" x1="9.84619" y1="20" x2="30.1539" y2="30.4615" gradientUnits="userSpaceOnUse">
<stop stop-color="#4D4D4D"/>
<stop offset="1"/>
</linearGradient>
<linearGradient id="paint2_linear" x1="15.3846" y1="9.23076" x2="24.6154" y2="18.1538" gradientUnits="userSpaceOnUse">
<stop stop-color="#3D3D3D"/>
<stop offset="1"/>
</linearGradient>
</defs>
</svg>
