<svg width="16" height="20" viewBox="0 0 16 20" fill="none" xmlns="http://www.w3.org/2000/svg">
<path d="M15.7334 18.5333C15.7334 19.1221 15.2555 19.6 14.6667 19.6H1.86672C1.27792 19.6 0.800049 19.1221 0.800049 18.5333V4.13332C0.800049 3.54452 1.27792 3.06665 1.86672 3.06665H14.6667C15.2555 3.06665 15.7334 3.54452 15.7334 4.13332V18.5333Z" fill="#C1694F"/>
<path d="M14.1334 17.4667C14.1334 17.7616 13.895 18 13.6 18H2.93336C2.63896 18 2.40002 17.7616 2.40002 17.4667V5.20002C2.40002 4.90562 2.63896 4.66669 2.93336 4.66669H13.6C13.895 4.66669 14.1334 4.90562 14.1334 5.20002V17.4667Z" fill="white"/>
<path d="M12 2.00002H9.86668C9.86668 1.11629 9.15041 0.400024 8.26667 0.400024C7.38294 0.400024 6.66668 1.11629 6.66668 2.00002H4.53334C3.94454 2.00002 3.46667 2.47789 3.46667 3.06669V5.73336H13.0667V3.06669C13.0667 2.47789 12.5888 2.00002 12 2.00002Z" fill="#CCD6DD"/>
<path d="M8.26674 3.06668C8.85584 3.06668 9.3334 2.58912 9.3334 2.00002C9.3334 1.41091 8.85584 0.93335 8.26674 0.93335C7.67764 0.93335 7.20007 1.41091 7.20007 2.00002C7.20007 2.58912 7.67764 3.06668 8.26674 3.06668Z" fill="#292F33"/>
<path d="M9.33334 7.86671C9.33334 8.16111 9.09494 8.40004 8.80001 8.40004H4.00001C3.70561 8.40004 3.46667 8.16111 3.46667 7.86671C3.46667 7.57231 3.70561 7.33337 4.00001 7.33337H8.80001C9.09494 7.33337 9.33334 7.57231 9.33334 7.86671ZM13.0667 10C13.0667 10.2944 12.8283 10.5334 12.5333 10.5334H4.00001C3.70561 10.5334 3.46667 10.2944 3.46667 10C3.46667 9.70564 3.70561 9.46671 4.00001 9.46671H12.5333C12.8283 9.46671 13.0667 9.70564 13.0667 10ZM13.0667 12.1334C13.0667 12.4283 12.8283 12.6667 12.5333 12.6667H4.00001C3.70561 12.6667 3.46667 12.4283 3.46667 12.1334C3.46667 11.8384 3.70561 11.6 4.00001 11.6H12.5333C12.8283 11.6 13.0667 11.8384 13.0667 12.1334ZM13.0667 14.2667C13.0667 14.5616 12.8283 14.8 12.5333 14.8H4.00001C3.70561 14.8 3.46667 14.5616 3.46667 14.2667C3.46667 13.9718 3.70561 13.7334 4.00001 13.7334H12.5333C12.8283 13.7334 13.0667 13.9718 13.0667 14.2667ZM13.0667 16.4C13.0667 16.695 12.8283 16.9334 12.5333 16.9334H7.73334C7.43894 16.9334 7.20001 16.695 7.20001 16.4C7.20001 16.1051 7.43894 15.8667 7.73334 15.8667H12.5333C12.8283 15.8667 13.0667 16.1051 13.0667 16.4Z" fill="#99AAB5"/>
</svg>
