<svg width="20" height="17" viewBox="0 0 20 17" fill="none" xmlns="http://www.w3.org/2000/svg">
<path d="M10 0C4.69816 0 0.400024 3.68427 0.400024 8.22827C0.400024 8.7968 0.467224 9.352 0.595758 9.888C1.54456 11.5205 2.20109 10.4901 5.20002 8.9904C8.25442 7.46294 5.20002 11.1237 4.13336 13.2571C3.80536 13.9131 3.98296 14.4683 4.43202 14.9232C6.00322 15.8853 7.92216 16.4571 10 16.4571C15.3019 16.4571 19.6 12.7733 19.6 8.22827C19.6 3.68427 15.3019 0 10 0ZM11.5195 13.0384C11.3088 13.7563 10.2075 14.0645 9.05922 13.7269C7.91096 13.3899 7.15096 12.5355 7.36162 11.8171C7.57229 11.0992 8.67362 10.7909 9.82189 11.1291C10.9702 11.4656 11.7302 12.32 11.5195 13.0384Z" fill="#D99E82"/>
<path d="M5.73342 5.7904C6.61708 5.7904 7.33342 5.07405 7.33342 4.19039C7.33342 3.30674 6.61708 2.59039 5.73342 2.59039C4.84977 2.59039 4.13342 3.30674 4.13342 4.19039C4.13342 5.07405 4.84977 5.7904 5.73342 5.7904Z" fill="#5C913B"/>
<path d="M11.0666 4.72374C11.9502 4.72374 12.6666 4.0074 12.6666 3.12374C12.6666 2.24009 11.9502 1.52374 11.0666 1.52374C10.1829 1.52374 9.46655 2.24009 9.46655 3.12374C9.46655 4.0074 10.1829 4.72374 11.0666 4.72374Z" fill="#226699"/>
<path d="M15.8666 7.92376C16.7503 7.92376 17.4666 7.20741 17.4666 6.32376C17.4666 5.4401 16.7503 4.72375 15.8666 4.72375C14.9829 4.72375 14.2666 5.4401 14.2666 6.32376C14.2666 7.20741 14.9829 7.92376 15.8666 7.92376Z" fill="#DD2E44"/>
<path d="M15.3334 12.7237C16.2171 12.7237 16.9334 12.0074 16.9334 11.1237C16.9334 10.2401 16.2171 9.52374 15.3334 9.52374C14.4497 9.52374 13.7334 10.2401 13.7334 11.1237C13.7334 12.0074 14.4497 12.7237 15.3334 12.7237Z" fill="#C065C8"/>
</svg>
