<svg width="20" height="20" viewBox="0 0 20 20" fill="none" xmlns="http://www.w3.org/2000/svg">
<path d="M17.4666 4.66669H14.2666V2.53336C14.2666 1.35522 13.3114 0.400024 12.1332 0.400024H7.86657C6.68844 0.400024 5.73324 1.35522 5.73324 2.53336V4.66669H2.53324C1.3551 4.66669 0.399902 5.62189 0.399902 6.80002V17.4667C0.399902 18.6448 1.3551 19.6 2.53324 19.6H17.4666C18.6447 19.6 19.5999 18.6448 19.5999 17.4667V6.80002C19.5999 5.62189 18.6447 4.66669 17.4666 4.66669ZM6.7999 3.60002C6.7999 3.01122 7.27777 2.53336 7.86657 2.53336H12.1332C12.722 2.53336 13.1999 3.01122 13.1999 3.60002V4.66669H6.7999V3.60002Z" fill="#9A4E1C"/>
<path d="M19.5999 11.0667C19.5999 12.2448 18.6447 13.2 17.4666 13.2H2.53324C1.3551 13.2 0.399902 12.2448 0.399902 11.0667V6.80002C0.399902 5.62189 1.3551 4.66669 2.53324 4.66669H17.4666C18.6447 4.66669 19.5999 5.62189 19.5999 6.80002V11.0667Z" fill="#662113"/>
<path d="M19.5999 10C19.5999 11.1782 18.6447 12.1334 17.4666 12.1334H2.53324C1.3551 12.1334 0.399902 11.1782 0.399902 10V6.80002C0.399902 5.62189 1.3551 4.66669 2.53324 4.66669H17.4666C18.6447 4.66669 19.5999 5.62189 19.5999 6.80002V10Z" fill="#9A4E1C"/>
<path d="M12.1331 10C12.1331 10.5888 11.6553 11.0667 11.0665 11.0667H8.93312C8.34432 11.0667 7.86646 10.5888 7.86646 10C7.86646 9.41122 8.34432 8.93335 8.93312 8.93335H11.0665C11.6553 8.93335 12.1331 9.41122 12.1331 10Z" fill="#CCD6DD"/>
</svg>
