<svg width="20" height="16" viewBox="0 0 20 16" fill="none" xmlns="http://www.w3.org/2000/svg">
<path d="M10 0C5.58187 0 2 3.58187 2 8V12.8H3.6V8C3.6 4.26667 6.41013 1.49973 10 1.49973C13.5893 1.49973 16.4 4.26667 16.4 8V13.3333L18 12.8V8C18 3.58187 14.4181 0 10 0Z" fill="#66757F"/>
<path d="M3.5999 14.4C3.5999 14.9888 3.12204 15.4667 2.53324 15.4667H1.46657C0.877769 15.4667 0.399902 14.9888 0.399902 14.4V9.59999C0.399902 9.01119 0.877769 8.53333 1.46657 8.53333H2.53324C3.12204 8.53333 3.5999 9.01119 3.5999 9.59999V14.4ZM19.5999 14.4C19.5999 14.9888 19.122 15.4667 18.5332 15.4667H17.4666C16.8778 15.4667 16.3999 14.9888 16.3999 14.4V9.59999C16.3999 9.01119 16.8778 8.53333 17.4666 8.53333H18.5332C19.122 8.53333 19.5999 9.01119 19.5999 9.59999V14.4Z" fill="#31373D"/>
</svg>
