<svg width="130" height="130" viewBox="0 0 130 130" fill="none" xmlns="http://www.w3.org/2000/svg">
<path d="M0 12C0 5.37258 5.37258 0 12 0H118C124.627 0 130 5.37258 130 12V118C130 124.627 124.627 130 118 130H12C5.37258 130 0 124.627 0 118V12Z" fill="url(#paint0_linear)"/>
<path d="M33.3079 69.9687C32.6463 67.4342 34.5588 64.9583 37.1782 64.9583H92.9397C95.5222 64.9583 97.4279 67.3692 96.8316 69.8819L90.6813 95.7986C90.2533 97.6019 88.6427 98.875 86.7894 98.875H43.9435C42.1235 98.875 40.5329 97.6463 40.0732 95.8853L33.3079 69.9687Z" fill="url(#paint1_linear)"/>
<circle cx="65" cy="44.7917" r="14.6667" fill="url(#paint2_linear)"/>
<defs>
<linearGradient id="paint0_linear" x1="0" y1="0" x2="130" y2="130" gradientUnits="userSpaceOnUse">
<stop stop-color="#FFDD00"/>
<stop offset="1" stop-color="#FCCD53"/>
</linearGradient>
<linearGradient id="paint1_linear" x1="32" y1="65" x2="98" y2="99" gradientUnits="userSpaceOnUse">
<stop stop-color="#4D4D4D"/>
<stop offset="1"/>
</linearGradient>
<linearGradient id="paint2_linear" x1="50" y1="30" x2="80" y2="59" gradientUnits="userSpaceOnUse">
<stop stop-color="#3D3D3D"/>
<stop offset="1"/>
</linearGradient>
</defs>
</svg>
