<svg width="20" height="20" viewBox="0 0 20 20" fill="none" xmlns="http://www.w3.org/2000/svg">
<path d="M19.5999 17.4667C19.5999 18.6448 18.6447 19.6 17.4666 19.6H2.53324C1.3551 19.6 0.399902 18.6448 0.399902 17.4667V2.53336C0.399902 1.35522 1.3551 0.400024 2.53324 0.400024H17.4666C18.6447 0.400024 19.5999 1.35522 19.5999 2.53336V17.4667Z" fill="#88C9F9"/>
<path d="M10.7154 19.3094C10.3218 19.6966 9.67864 19.6966 9.28557 19.3094L5.74797 15.8272C5.35491 15.44 5.25091 14.7435 5.51651 14.2784L9.51651 4.44001C9.78264 3.97548 10.2178 3.97548 10.4834 4.44001L14.4834 14.2784C14.749 14.743 14.645 15.44 14.252 15.8267L10.7154 19.3094Z" fill="#DD2E44"/>
<path d="M10 8.22295C10.5062 8.22295 11.0688 7.71521 11.5462 7.05441L10.4832 4.44001C10.2171 3.97548 9.7819 3.97548 9.5163 4.44001L8.45337 7.05441C8.93177 7.71521 9.4939 8.22295 10 8.22295Z" fill="#A0041E"/>
<path d="M12.6666 3.4816C12.6666 4.52907 11.1781 7.27467 9.99992 7.27467C8.82179 7.27467 7.33325 4.52907 7.33325 3.4816C7.33325 2.53067 8.82179 2 9.99992 2C11.1781 2 12.6666 2.53067 12.6666 3.4816Z" fill="#DD2E44"/>
<path d="M0.399902 2.53336V3.73549C1.50604 5.21283 4.01537 7.86936 4.66657 7.86936C5.8447 7.86936 10.5332 2.11149 10.5332 0.933358C10.5332 0.400024 9.9999 0.400024 9.46657 0.400024H2.53324C1.3551 0.400024 0.399902 1.35522 0.399902 2.53336Z" fill="#4CA0D3"/>
<path d="M9.46655 0.933358C9.46655 2.11149 14.1551 7.86936 15.3332 7.86936C15.9844 7.86936 18.4938 5.21283 19.5999 3.73549V2.53336C19.5999 1.35522 18.6447 0.400024 17.4666 0.400024H10.5332C9.99989 0.400024 9.46655 0.400024 9.46655 0.933358Z" fill="#4CA0D3"/>
<path d="M2.53334 0.400024C2.39094 0.400024 2.25281 0.415491 2.11841 0.442158C2.74934 1.32589 6.03307 2.00002 10 2.00002C13.9669 2.00002 17.2507 1.32589 17.8816 0.442158C17.7472 0.415491 17.6091 0.400024 17.4667 0.400024H2.53334Z" fill="#226699"/>
</svg>
