<svg width="20" height="20" viewBox="0 0 20 20" fill="none" xmlns="http://www.w3.org/2000/svg">
<path d="M17.3411 0.964722H2.65872C1.723 0.964722 0.9646 1.72312 0.9646 2.65884V17.3412C0.9646 18.2769 1.723 19.0353 2.65872 19.0353H17.3411C18.2768 19.0353 19.0352 18.2769 19.0352 17.3412V2.65884C19.0352 1.72312 18.2768 0.964722 17.3411 0.964722Z" fill="#CCD6DD"/>
<path d="M17.3411 0.400024H2.65873C1.41129 0.400024 0.399902 1.41141 0.399902 2.65885V17.3412C0.399902 18.5886 1.41129 19.6 2.65873 19.6H17.3411C18.5885 19.6 19.5999 18.5886 19.5999 17.3412V2.65885C19.5999 1.41141 18.5885 0.400024 17.3411 0.400024ZM17.3411 1.52944C17.9639 1.52944 18.4705 2.03598 18.4705 2.65885V4.91767H15.0823V1.52944H17.3411ZM15.0823 10.5647H18.4705V13.953H15.0823V10.5647ZM15.0823 9.43532V6.04708H18.4705V9.43532H15.0823ZM13.9528 1.52944V4.91767H10.5646V1.52944H13.9528ZM10.5646 6.04708H13.9528V9.43532H10.5646V6.04708ZM10.5646 10.5647H13.9528V13.953H10.5646V10.5647ZM9.4352 1.52944V4.91767H6.04696V1.52944H9.4352ZM6.04696 6.04708H9.4352V9.43532H6.04696V6.04708ZM6.04696 10.5647H9.4352V13.953H6.04696V10.5647ZM1.52931 2.65885C1.52931 2.03598 2.03586 1.52944 2.65873 1.52944H4.91755V4.91767H1.52931V2.65885ZM1.52931 6.04708H4.91755V9.43532H1.52931V6.04708ZM1.52931 10.5647H4.91755V13.953H1.52931V10.5647ZM2.65873 18.4706C2.03586 18.4706 1.52931 17.9641 1.52931 17.3412V15.0824H4.91755V18.4706H2.65873ZM6.04696 18.4706V15.0824H9.4352V18.4706H6.04696ZM10.5646 18.4706V15.0824H13.9528V18.4706H10.5646ZM17.3411 18.4706H15.0823V15.0824H18.4705V17.3412C18.4705 17.9641 17.9639 18.4706 17.3411 18.4706Z" fill="#E1E8ED"/>
<path d="M2.65768 18.4706C2.47697 18.4706 2.29344 18.4277 2.12347 18.3356C1.57401 18.0403 1.36902 17.3553 1.66436 16.8058L5.6173 9.46467C5.78615 9.15013 6.09448 8.93441 6.44742 8.88246C6.80093 8.83051 7.15782 8.9491 7.41024 9.20152L10.8414 12.6327L16.3405 2.13479C16.6296 1.58251 17.3124 1.36849 17.8646 1.65875C18.4175 1.94787 18.6304 2.6306 18.3413 3.18345L12.1295 15.0423C11.9629 15.3608 11.6546 15.5804 11.2994 15.6352C10.9453 15.6866 10.5845 15.5714 10.3303 15.3173L6.88563 11.8731L3.65326 17.8765C3.4494 18.2554 3.05975 18.4706 2.65768 18.4706Z" fill="#DD2E44"/>
</svg>
