<svg width="20" height="16" viewBox="0 0 20 16" fill="none" xmlns="http://www.w3.org/2000/svg">
<path d="M18.5332 12.3179C18.3108 11.8043 18.0554 11.2469 17.4666 11.2469H16.9332C17.522 11.2469 17.9999 10.7675 17.9999 10.176V1.07093C17.9999 0.479467 17.522 0 16.9332 0H3.06657C2.47777 0 1.9999 0.479467 1.9999 1.07093V10.176C1.9999 10.7675 2.47777 11.2469 3.06657 11.2469H2.53324C1.94444 11.2469 1.64417 11.7824 1.46657 12.3179L0.399902 14.9285C0.399902 15.5205 0.877769 16 1.46657 16H18.5332C19.122 16 19.5999 15.5205 19.5999 14.9291L18.5332 12.3179Z" fill="#CCD6DD"/>
<path d="M0.404053 14.9733L0.407253 15.0037L0.497919 15.3728C0.666453 15.7419 1.03552 16 1.46645 16H18.5331C19.107 16 19.5715 15.544 19.5955 14.9733H0.404053Z" fill="#9AAAB4"/>
<path d="M16.9331 9.64001C16.9331 9.93601 16.6947 10.1755 16.3997 10.1755H3.59974C3.30534 10.1755 3.06641 9.93601 3.06641 9.64001V1.60694C3.06641 1.31094 3.30534 1.07147 3.59974 1.07147H16.3997C16.6947 1.07147 16.9331 1.31147 16.9331 1.60694V9.64001Z" fill="#5DADEC"/>
<path d="M17.9497 13.3558L17.5443 12.1958C17.4169 11.9505 17.2057 11.7494 16.9107 11.7494H3.12515C2.83075 11.7494 2.64195 11.967 2.50861 12.3019L2.14168 13.3563C2.02488 13.6742 2.38061 13.8918 2.67501 13.8918H6.71661C6.71661 13.8918 7.21635 13.8667 7.30488 13.5675C7.40728 13.2219 7.52621 12.7014 7.55181 12.6097C7.59128 12.4689 7.75875 12.3265 8.00835 12.3265H12.5833C12.8499 12.3265 12.9811 12.4614 13.0158 12.6283C13.0382 12.7371 13.1822 13.2369 13.2494 13.5787C13.3086 13.8833 13.9006 13.8913 13.9006 13.8913H17.4174C17.7113 13.8913 18.0665 13.6401 17.9497 13.3558Z" fill="#AEBBC1"/>
<path d="M12.3333 14.4603H8.18344C7.98344 14.4603 7.8965 14.2773 7.9253 14.1003C7.9541 13.9237 8.11677 13.144 8.12957 13.0533C8.14184 12.9621 8.2757 12.8533 8.40904 12.8533H12.1504C12.3088 12.8533 12.4117 12.9403 12.4437 13.1141C12.4752 13.2885 12.6048 13.9893 12.6149 14.1493C12.625 14.3099 12.5248 14.4603 12.3333 14.4603Z" fill="#9AAAB4"/>
</svg>
